<svg width="340" height="84" viewBox="0 0 340 84" fill="none" xmlns="http://www.w3.org/2000/svg">
<path d="M46.8161 15.8164L58.1821 31.4505L62.7364 22.4359L52.5318 12.2313L46.8161 15.8164Z" fill="#FEDA38"/>
<path d="M58.1821 32.767C57.7633 32.767 57.3656 32.5667 57.1178 32.2247L45.7526 16.5906C45.538 16.2954 45.4551 15.9248 45.5252 15.5671C45.593 15.2086 45.8076 14.8953 46.1172 14.7025L51.8322 11.1167C52.3518 10.789 53.0267 10.8651 53.462 11.3012L63.6673 21.5058C64.0695 21.9079 64.1674 22.5225 63.9113 23.0302L59.357 32.0447C59.1499 32.4537 58.7454 32.7264 58.2875 32.7633C58.2528 32.7655 58.2167 32.767 58.1821 32.767ZM48.7096 16.1824L57.9787 28.9327L61.1322 22.6927L52.342 13.9033L48.7096 16.1824Z" fill="#231F20"/>
<path d="M52.5318 12.2313L62.7364 22.4359L65.8492 16.2736L58.2318 8.65608L52.5318 12.2313Z" fill="#FEDA38"/>
<path d="M62.7364 23.7524C62.39 23.7524 62.0533 23.6161 61.8055 23.3668L51.6009 13.1622C51.317 12.8798 51.1777 12.4821 51.2229 12.0837C51.2695 11.6853 51.4925 11.3291 51.8322 11.1174L57.5328 7.5414C58.051 7.21378 58.7296 7.2906 59.1627 7.72518L66.7802 15.3442C67.1823 15.7463 67.2803 16.3609 67.0242 16.8686L63.9106 23.0309C63.7208 23.4075 63.3608 23.6696 62.9443 23.7366C62.875 23.7472 62.8057 23.7524 62.7364 23.7524ZM54.6302 12.4693L62.3817 20.2201L64.245 16.5311L58.0427 10.3273L54.6302 12.4693Z" fill="#231F20"/>
<path d="M63.9317 5.08083L58.2318 8.65608L65.8492 16.2736L68.9621 10.1112L63.9317 5.08083Z" fill="#FEDA38"/>
<path d="M65.8492 17.5901C65.5035 17.5901 65.1669 17.4537 64.9191 17.2044L57.3016 9.58622C57.0177 9.30379 56.8791 8.90612 56.9235 8.5077C56.9702 8.10928 57.1939 7.75303 57.5336 7.54139L63.2327 3.96614C63.7517 3.63851 64.428 3.71307 64.8626 4.15066L69.8937 9.18027C70.2959 9.58246 70.3938 10.197 70.1377 10.7047L67.0242 16.8678C66.8344 17.2451 66.4744 17.5065 66.0579 17.5735C65.9886 17.5848 65.9185 17.5901 65.8492 17.5901ZM60.3316 8.89332L65.4945 14.0577L67.3586 10.3673L63.7426 6.75283L60.3316 8.89332Z" fill="#231F20"/>
<path d="M72.0688 3.96088C72.8996 2.31673 71.04 0.622121 69.4802 1.60048L63.9317 5.08008L68.9621 10.1104L72.0688 3.96088Z" fill="#FEDA38"/>
<path d="M68.9628 11.427C68.6171 11.427 68.2812 11.2906 68.0319 11.0413L63.0008 6.01097C62.7183 5.72854 62.5783 5.33162 62.6235 4.9332C62.6686 4.53478 62.8931 4.17853 63.2328 3.96614L68.7805 0.486537C69.9833 -0.268884 71.5055 -0.135574 72.5577 0.824706C73.6106 1.78348 73.887 3.28227 73.2445 4.55511L70.1377 10.7047C69.9472 11.0813 69.5872 11.3434 69.1707 11.4104C69.1014 11.4217 69.0321 11.427 68.9628 11.427ZM66.0308 5.31882L68.6081 7.89463L70.8947 3.36738C71.0438 3.07214 70.8894 2.86577 70.784 2.76937C70.6567 2.65263 70.4473 2.54568 70.1784 2.71589L66.0308 5.31882ZM72.0696 3.96087H72.0824H72.0696Z" fill="#231F20"/>
<path d="M22.971 16.382C22.971 16.382 2.35927 21.3167 17.8179 38.3216L22.971 16.382Z" fill="#F97DA3"/>
<path d="M17.8179 39.6374C17.4519 39.6374 17.0971 39.4845 16.8433 39.2065C11.7331 33.5857 9.8231 28.5237 11.1675 24.1652C13.2432 17.4297 22.2804 15.1943 22.6652 15.1016C23.1119 14.9947 23.5766 15.1272 23.9004 15.4488C24.2228 15.7712 24.3568 16.2382 24.2522 16.6825L19.099 38.6221C18.9876 39.0973 18.6215 39.4732 18.1478 39.5952C18.0393 39.623 17.9286 39.6374 17.8179 39.6374ZM21.1521 18.3666C18.6712 19.3419 14.7699 21.3966 13.68 24.9477C12.7778 27.8896 13.9384 31.4271 17.1325 35.4829L21.1521 18.3666Z" fill="#231F20"/>
<path d="M19.1344 27.7178C19.1344 27.7178 -1.47733 32.6533 13.9813 49.6574L19.1344 27.7178Z" fill="#26BBEC"/>
<path d="M13.9813 50.9747C13.6145 50.9747 13.2598 50.8218 13.0067 50.5439C7.89727 44.9215 5.98725 39.861 7.33014 35.501C9.4066 28.7655 18.4438 26.5301 18.8279 26.4375C19.2738 26.332 19.74 26.4631 20.0623 26.7847C20.3862 27.107 20.5202 27.574 20.4156 28.0183L15.2624 49.9587C15.1502 50.4347 14.7842 50.8098 14.3112 50.9318C14.202 50.9604 14.092 50.9747 13.9813 50.9747ZM17.3155 29.7039C14.8346 30.6778 10.9333 32.7331 9.84494 36.2835C8.94115 39.2269 10.1018 42.7645 13.2959 46.8203L17.3155 29.7039Z" fill="#231F20"/>
<path d="M17.0233 39.0544C17.0233 39.0544 -4.03656 50.6561 17.0233 62.2586V39.0544Z" fill="#EE5281"/>
<path d="M17.0233 63.5751C16.8049 63.5751 16.5865 63.5216 16.3884 63.4124C9.72519 59.7407 6.34651 55.5938 6.34651 51.0861C6.34651 43.5206 15.9787 38.128 16.3884 37.9021C16.7959 37.6784 17.2907 37.6867 17.6929 37.9217C18.0943 38.1597 18.3398 38.5897 18.3398 39.0552V62.2593C18.3398 62.7247 18.0943 63.1555 17.6929 63.3928C17.4865 63.5133 17.2553 63.5751 17.0233 63.5751ZM15.7075 41.4705C13.1468 43.2932 8.9773 46.9054 8.97956 51.0914C8.98257 54.1477 11.2436 57.1235 15.7075 59.9554V41.4705Z" fill="#231F20"/>
<path d="M16.6475 54.2954C16.6475 54.2954 3.32708 69.8504 25.2772 76.6545L16.6475 54.2954Z" fill="#288EEA"/>
<path d="M25.2772 77.9702C25.1469 77.9702 25.0159 77.9507 24.8878 77.9115C17.5264 75.6294 13.1084 72.1001 11.7572 67.42C9.74326 60.4412 15.4063 53.7215 15.648 53.4383C15.9501 53.0881 16.4087 52.9209 16.8704 52.9977C17.3268 53.076 17.7102 53.3886 17.8759 53.8201L26.5049 76.18C26.6871 76.6515 26.5832 77.1839 26.239 77.5522C25.9859 77.8234 25.6357 77.9702 25.2772 77.9702ZM16.3063 57.0655C14.9604 59.2655 13.2281 63.0426 14.2901 66.7007C15.2255 69.9235 18.1591 72.5286 23.023 74.4673L16.3063 57.0655Z" fill="#231F20"/>
<path d="M55.6334 60.2386C57.1743 60.1248 72.4055 61.5092 72.4055 45.7071C72.4055 37.8335 66.039 31.4505 58.1655 31.4505C58.1655 31.4505 58.5172 14.6181 35.8448 13.587C35.8448 13.587 30.181 5.34292 21.421 6.37325C21.421 6.37325 16.3575 10.4961 21.5107 21.3167C21.5107 21.3167 7.8099 51.2067 26.2375 78.6835H72.3061V77.376C72.3061 74.3701 70.6205 71.5819 67.9046 70.2948C64.7368 68.7937 60.2276 65.8662 55.6334 60.2386Z" fill="white"/>
<path d="M72.3061 80H26.2375C25.7991 80 25.3887 79.7816 25.1446 79.4163C7.92965 53.7478 18.2939 25.679 20.0699 21.3423C14.9604 10.1142 20.3538 5.54478 20.5895 5.35347C20.7831 5.19531 21.0188 5.09589 21.2666 5.06652C29.461 4.09871 35.0284 10.3801 36.5309 12.3059C55.8834 13.4484 58.9217 26.0586 59.3939 30.1822C67.3992 30.8118 73.7213 37.5345 73.7213 45.7071C73.7213 50.5672 72.3467 54.4038 69.6376 57.1084C66.2258 60.5135 61.493 61.3088 58.4652 61.4926C62.3237 65.6613 65.9584 67.917 68.468 69.1063C71.5989 70.5885 73.6218 73.8354 73.6218 77.3767V78.6835C73.6218 79.411 73.0336 80 72.3061 80ZM26.9447 77.3677H70.9903C70.9858 74.8416 69.5555 72.5332 67.342 71.484C64.1968 69.9942 59.4368 66.9793 54.6136 61.0708C54.3033 60.6905 54.2295 60.1685 54.4238 59.7174C54.6181 59.2662 55.0474 58.962 55.537 58.9258C55.6785 58.916 55.9143 58.9168 56.2427 58.9145C58.2069 58.916 64.0876 58.9288 67.7781 55.2451C69.975 53.0519 71.089 49.8434 71.089 45.7071C71.089 38.5716 65.2919 32.767 58.1655 32.767C57.8123 32.767 57.4733 32.6247 57.2248 32.3716C56.9785 32.1193 56.8422 31.7774 56.8497 31.4241C56.8587 30.793 56.8377 15.8601 35.7846 14.9028C35.3741 14.8832 34.9952 14.6731 34.761 14.3349C34.7083 14.2611 29.6388 7.06466 22.0168 7.63781C21.1898 8.59131 18.7247 12.4038 22.6991 20.7511C22.8663 21.1021 22.8694 21.511 22.7067 21.8643C22.5741 22.155 9.73573 51.0041 26.9447 77.3677Z" fill="#231F20"/>
<path d="M42.3792 40.0034C38.5283 40.0034 35.3959 36.871 35.3959 33.0201C35.3959 32.2925 35.9842 31.7036 36.7117 31.7036C37.4393 31.7036 38.0282 32.2925 38.0282 33.0201C38.0282 35.4182 39.9812 37.3711 42.3792 37.3711C44.7796 37.3711 46.7318 35.4182 46.7318 33.0201C46.7318 32.2925 47.3207 31.7036 48.0483 31.7036C48.7758 31.7036 49.3641 32.2925 49.3641 33.0201C49.3641 36.871 46.2302 40.0034 42.3792 40.0034Z" fill="#231F20"/>
<path d="M31.0434 17.6985C30.5064 17.6985 30.001 17.3664 29.8067 16.8316C29.1537 15.0376 28.2786 13.9011 27.2038 13.4537C26.0989 12.9935 25.0791 13.4213 25.0693 13.4251C24.4111 13.7339 23.6285 13.4447 23.322 12.7842C23.0162 12.1244 23.3039 11.3419 23.9637 11.0368C24.1708 10.9397 26.0507 10.1255 28.2153 11.0225C29.9973 11.7644 31.365 13.4161 32.2801 15.9316C32.5294 16.614 32.1777 17.3702 31.493 17.6179C31.3454 17.6729 31.1925 17.6985 31.0434 17.6985Z" fill="#231F20"/>
<path d="M105 29.232C103.891 29.232 103.08 28.976 102.568 28.464C102.099 27.9093 101.864 27.2053 101.864 26.352V25.52C101.864 24.6667 102.099 23.984 102.568 23.472C103.08 22.9173 103.891 22.64 105 22.64C106.109 22.64 106.899 22.9173 107.368 23.472C107.88 23.984 108.136 24.6667 108.136 25.52V26.352C108.136 27.2053 107.88 27.9093 107.368 28.464C106.899 28.976 106.109 29.232 105 29.232ZM102.44 36.976H107.56V70H102.44V36.976ZM117.416 53.296V47.792H134.12V53.296H117.416ZM161.196 70.768C155.521 70.768 151.105 68.848 147.948 65.008C144.791 61.1253 143.212 55.4293 143.212 47.92C143.212 40.4107 144.791 34.6507 147.948 30.64C151.105 26.5867 155.521 24.56 161.196 24.56C164.951 24.56 168.087 25.4133 170.604 27.12C173.164 28.8267 175.148 31.2373 176.556 34.352L172.204 36.976C171.308 34.672 169.943 32.8373 168.108 31.472C166.273 30.064 163.969 29.36 161.196 29.36C159.276 29.36 157.548 29.7227 156.012 30.448C154.519 31.1733 153.239 32.2187 152.172 33.584C151.148 34.9067 150.359 36.5067 149.804 38.384C149.249 40.2187 148.972 42.288 148.972 44.592V51.248C148.972 55.856 150.039 59.4613 152.172 62.064C154.305 64.6667 157.313 65.968 161.196 65.968C164.055 65.968 166.444 65.2427 168.364 63.792C170.284 62.2987 171.692 60.336 172.588 57.904L176.876 60.592C175.468 63.7493 173.441 66.2453 170.796 68.08C168.151 69.872 164.951 70.768 161.196 70.768ZM197.17 70.768C194.951 70.768 192.925 70.3627 191.09 69.552C189.255 68.7413 187.677 67.5893 186.354 66.096C185.074 64.56 184.071 62.7467 183.346 60.656C182.621 58.5227 182.258 56.1333 182.258 53.488C182.258 50.8853 182.621 48.5173 183.346 46.384C184.071 44.2507 185.074 42.4373 186.354 40.944C187.677 39.408 189.255 38.2347 191.09 37.424C192.925 36.6133 194.951 36.208 197.17 36.208C199.389 36.208 201.394 36.6133 203.186 37.424C205.021 38.2347 206.599 39.408 207.922 40.944C209.245 42.4373 210.269 44.2507 210.994 46.384C211.719 48.5173 212.082 50.8853 212.082 53.488C212.082 56.1333 211.719 58.5227 210.994 60.656C210.269 62.7467 209.245 64.56 207.922 66.096C206.599 67.5893 205.021 68.7413 203.186 69.552C201.394 70.3627 199.389 70.768 197.17 70.768ZM197.17 66.224C199.943 66.224 202.205 65.3707 203.954 63.664C205.703 61.9573 206.578 59.3547 206.578 55.856V51.12C206.578 47.6213 205.703 45.0187 203.954 43.312C202.205 41.6053 199.943 40.752 197.17 40.752C194.397 40.752 192.135 41.6053 190.386 43.312C188.637 45.0187 187.762 47.6213 187.762 51.12V55.856C187.762 59.3547 188.637 61.9573 190.386 63.664C192.135 65.3707 194.397 66.224 197.17 66.224ZM241.623 64.624H241.367C239.361 68.72 236.14 70.768 231.703 70.768C229.655 70.768 227.799 70.3627 226.135 69.552C224.471 68.7413 223.041 67.5893 221.847 66.096C220.695 64.6027 219.799 62.7893 219.159 60.656C218.561 58.5227 218.263 56.1333 218.263 53.488C218.263 50.8427 218.561 48.4533 219.159 46.32C219.799 44.1867 220.695 42.3733 221.847 40.88C223.041 39.3867 224.471 38.2347 226.135 37.424C227.799 36.6133 229.655 36.208 231.703 36.208C234.007 36.208 235.969 36.72 237.591 37.744C239.255 38.7253 240.513 40.2613 241.367 42.352H241.623V22.64H246.743V70H241.623V64.624ZM233.111 66.16C234.263 66.16 235.351 66.0107 236.375 65.712C237.441 65.4133 238.359 64.9867 239.127 64.432C239.895 63.8347 240.492 63.1307 240.919 62.32C241.388 61.4667 241.623 60.5067 241.623 59.44V47.152C241.623 46.256 241.388 45.424 240.919 44.656C240.492 43.8453 239.895 43.1627 239.127 42.608C238.359 42.0533 237.441 41.6267 236.375 41.328C235.351 40.9867 234.263 40.816 233.111 40.816C230.209 40.816 227.927 41.7333 226.263 43.568C224.599 45.36 223.767 47.728 223.767 50.672V56.304C223.767 59.248 224.599 61.6373 226.263 63.472C227.927 65.264 230.209 66.16 233.111 66.16ZM260.188 29.232C259.078 29.232 258.268 28.976 257.756 28.464C257.286 27.9093 257.052 27.2053 257.052 26.352V25.52C257.052 24.6667 257.286 23.984 257.756 23.472C258.268 22.9173 259.078 22.64 260.188 22.64C261.297 22.64 262.086 22.9173 262.556 23.472C263.068 23.984 263.324 24.6667 263.324 25.52V26.352C263.324 27.2053 263.068 27.9093 262.556 28.464C262.086 28.976 261.297 29.232 260.188 29.232ZM257.628 36.976H262.748V70H257.628V36.976ZM273.628 70V36.976H278.748V42.352H279.004C279.814 40.4747 280.945 38.9813 282.396 37.872C283.889 36.7627 285.873 36.208 288.348 36.208C291.761 36.208 294.449 37.3173 296.412 39.536C298.417 41.712 299.42 44.8053 299.42 48.816V70H294.3V49.712C294.3 43.7813 291.804 40.816 286.812 40.816C285.788 40.816 284.785 40.944 283.804 41.2C282.865 41.456 282.012 41.84 281.244 42.352C280.476 42.864 279.857 43.5253 279.388 44.336C278.961 45.104 278.748 46.0213 278.748 47.088V70H273.628ZM337.843 73.648C337.843 77.0613 336.499 79.5573 333.811 81.136C331.165 82.7573 327.176 83.568 321.843 83.568C316.68 83.568 312.968 82.864 310.707 81.456C308.445 80.048 307.315 78.0427 307.315 75.44C307.315 73.648 307.784 72.24 308.723 71.216C309.661 70.2347 310.941 69.5093 312.562 69.04V68.336C310.6 67.3973 309.619 65.8613 309.619 63.728C309.619 62.064 310.152 60.8053 311.219 59.952C312.285 59.056 313.651 58.3947 315.315 57.968V57.712C313.352 56.7733 311.816 55.4293 310.707 53.68C309.64 51.9307 309.107 49.904 309.107 47.6C309.107 45.936 309.405 44.4 310.003 42.992C310.6 41.584 311.432 40.3893 312.499 39.408C313.608 38.384 314.909 37.5947 316.403 37.04C317.939 36.4853 319.645 36.208 321.523 36.208C323.869 36.208 325.96 36.6347 327.795 37.488V36.912C327.795 35.632 328.093 34.5867 328.691 33.776C329.288 32.9227 330.269 32.496 331.635 32.496H336.562V36.976H330.291V39.088C331.485 40.112 332.403 41.3493 333.043 42.8C333.725 44.208 334.067 45.808 334.067 47.6C334.067 49.264 333.768 50.8 333.171 52.208C332.573 53.616 331.72 54.832 330.611 55.856C329.544 56.8373 328.243 57.6053 326.707 58.16C325.171 58.7147 323.464 58.992 321.587 58.992C320.52 58.992 319.453 58.8853 318.387 58.672C317.277 58.9707 316.275 59.4187 315.379 60.016C314.483 60.5707 314.035 61.36 314.035 62.384C314.035 63.3653 314.504 64.0267 315.443 64.368C316.381 64.7093 317.597 64.88 319.091 64.88H326.131C330.227 64.88 333.192 65.6693 335.027 67.248C336.904 68.784 337.843 70.9173 337.843 73.648ZM333.043 74.032C333.043 72.7093 332.531 71.6427 331.507 70.832C330.525 70.064 328.755 69.68 326.195 69.68H315.187C313.139 70.6187 312.115 72.112 312.115 74.16C312.115 75.6107 312.648 76.848 313.715 77.872C314.824 78.896 316.68 79.408 319.283 79.408H324.019C326.877 79.408 329.096 78.96 330.675 78.064C332.253 77.168 333.043 75.824 333.043 74.032ZM321.587 54.896C323.763 54.896 325.491 54.384 326.771 53.36C328.051 52.2933 328.691 50.672 328.691 48.496V46.704C328.691 44.528 328.051 42.928 326.771 41.904C325.491 40.8373 323.763 40.304 321.587 40.304C319.411 40.304 317.683 40.8373 316.403 41.904C315.123 42.928 314.483 44.528 314.483 46.704V48.496C314.483 50.672 315.123 52.2933 316.403 53.36C317.683 54.384 319.411 54.896 321.587 54.896Z" fill="black"/>
</svg>
